<?xml version="1.0" standalone="no"?>
<!DOCTYPE svg PUBLIC "-//W3C//DTD SVG 20010904//EN"
 "http://www.w3.org/TR/2001/REC-SVG-20010904/DTD/svg10.dtd">
<svg version="1.0" xmlns="http://www.w3.org/2000/svg"
 width="233.000000pt" height="276.000000pt" viewBox="0 0 233.000000 276.000000"
 preserveAspectRatio="xMidYMid meet">

<g transform="translate(0.000000,276.000000) scale(0.100000,-0.100000)"
fill="#000000" stroke="none">
<path d="M30 1886 c0 -833 0 -846 20 -866 35 -35 83 -18 95 33 3 12 4 347 3
745 -2 397 0 722 5 722 4 0 31 -16 60 -35 29 -19 80 -45 112 -57 59 -22 72
-23 620 -29 604 -6 647 -10 793 -65 117 -44 137 -60 171 -134 47 -101 64 -195
65 -345 0 -105 -4 -145 -23 -210 -57 -201 -179 -349 -366 -441 -156 -77 -210
-86 -525 -93 l-275 -6 -5 -375 -5 -375 -160 -5 c-179 -6 -220 -17 -284 -81
-69 -69 -106 -206 -64 -240 13 -11 93 -14 427 -14 l411 0 3 376 2 376 208 6
c203 6 294 18 402 54 355 118 568 394 587 759 14 273 -71 511 -241 675 -111
108 -118 115 -204 204 -114 118 -249 191 -440 237 -83 20 -117 22 -739 25
l-653 4 0 -845z m1403 696 c87 -24 191 -68 207 -87 8 -10 1 -10 -32 -2 -24 5
-299 13 -613 16 -547 7 -572 8 -627 28 -63 24 -135 69 -119 74 6 2 257 2 558
-1 523 -6 552 -7 626 -28z m692 -594 c45 -100 66 -209 66 -346 -1 -138 -21
-232 -71 -337 -94 -195 -254 -320 -487 -382 -90 -24 -120 -26 -368 -32 l-270
-6 -3 -377 -2 -378 -305 0 c-168 0 -305 4 -305 9 0 18 41 59 74 75 28 13 70
16 235 16 l201 0 0 380 0 380 163 0 c272 0 416 27 582 109 203 101 337 251
410 459 37 107 48 199 42 360 -3 78 -3 142 0 142 2 0 19 -33 38 -72z"/>
<path d="M780 1855 l0 -275 105 0 104 0 3 -107 3 -108 155 -3 c181 -4 254 11
315 61 59 48 85 115 84 217 -1 152 -53 230 -174 262 -29 8 -45 18 -45 28 0 33
-50 119 -83 145 -60 45 -113 55 -299 55 l-168 0 0 -275z m372 138 c62 -35 87
-138 54 -218 -26 -61 -64 -75 -198 -75 l-118 0 0 153 c0 85 3 157 8 161 4 5
55 6 114 3 80 -3 115 -9 140 -24z m248 -233 c45 -48 51 -149 14 -221 -23 -45
-69 -59 -193 -59 l-111 0 0 50 c0 48 1 49 35 59 90 25 160 92 180 174 9 36 39
35 75 -3z"/>
</g>
</svg>
